<?xml version="1.0" standalone="no"?>
<!DOCTYPE svg PUBLIC "-//W3C//DTD SVG 20010904//EN"
 "http://www.w3.org/TR/2001/REC-SVG-20010904/DTD/svg10.dtd">
<svg version="1.0" xmlns="http://www.w3.org/2000/svg"
 width="442.000000pt" height="442.000000pt" viewBox="0 0 442.000000 442.000000"
 preserveAspectRatio="xMidYMid meet">
<metadata>
Created by potrace 1.11, written by Peter Selinger 2001-2013
</metadata>
<g transform="translate(0.000000,442.000000) scale(0.100000,-0.100000)"
fill="#000000" stroke="none">
<path d="M380 2210 l0 -2210 300 0 300 0 0 2210 0 2210 -300 0 -300 0 0 -2210z"/>
<path d="M3440 2255 l0 -2165 300 0 300 0 0 2165 0 2165 -300 0 -300 0 0
-2165z"/>
<path d="M2000 2415 c-85 -19 -168 -36 -185 -39 -16 -3 -62 -12 -100 -20 -39
-8 -82 -17 -95 -20 -14 -2 -95 -19 -180 -36 -85 -17 -164 -33 -175 -36 -149
-29 -269 -55 -271 -57 -2 -1 124 -26 279 -55 306 -57 320 -59 357 -67 14 -2
41 -7 60 -10 19 -3 67 -12 105 -20 39 -8 86 -17 105 -20 19 -3 55 -9 80 -15
161 -34 264 -50 292 -45 18 3 60 12 93 20 33 7 77 16 97 19 21 3 88 17 150 30
62 13 127 27 143 30 17 2 41 7 55 11 14 3 36 7 50 10 64 12 270 54 445 91 11
2 31 6 45 9 90 18 85 20 -100 54 -101 19 -193 35 -204 37 -12 2 -32 5 -46 9
-14 3 -41 8 -60 11 -19 3 -42 7 -50 9 -8 3 -33 7 -55 11 -22 3 -43 8 -46 9 -3
2 -28 7 -55 11 -27 3 -52 8 -55 10 -4 2 -24 6 -45 9 -22 3 -59 10 -84 15 -25
4 -74 14 -110 20 -36 7 -107 20 -157 31 -51 10 -101 18 -110 18 -10 -1 -88
-16 -173 -34z"/>
</g>
</svg>
